<?xml version="1.0" standalone="no"?>
<!DOCTYPE svg PUBLIC "-//W3C//DTD SVG 20010904//EN"
 "http://www.w3.org/TR/2001/REC-SVG-20010904/DTD/svg10.dtd">
<svg version="1.0" xmlns="http://www.w3.org/2000/svg"
 width="260.000000pt" height="260.000000pt" viewBox="0 0 260.000000 260.000000"
 preserveAspectRatio="xMidYMid meet">
<metadata>
Created by potrace 1.14, written by Peter Selinger 2001-2017
</metadata>
<g transform="translate(0.000000,260.000000) scale(0.100000,-0.100000)"
fill="#000000" stroke="none">
<path d="M654 1821 c3 -5 21 -12 40 -15 75 -14 83 -29 327 -621 l176 -430 45
-3 45 -3 43 103 c23 57 48 117 55 133 7 17 68 165 135 330 68 165 133 321 146
347 35 69 77 113 134 137 27 12 50 24 50 26 0 3 -95 5 -212 5 -117 0 -208 -4
-202 -8 5 -5 29 -17 54 -27 91 -38 96 -57 55 -201 -51 -177 -169 -527 -173
-513 -2 8 -7 23 -12 34 -12 28 -121 318 -124 330 -2 6 -8 24 -15 40 -6 17 -21
55 -32 85 -12 30 -27 71 -35 90 -21 52 -27 109 -14 125 7 8 28 17 49 21 98 18
42 23 -237 24 -174 0 -301 -4 -298 -9z"/>
<path d="M1755 1042 c-56 -12 -110 -69 -119 -124 -14 -86 62 -168 154 -168 91
0 168 80 157 163 -12 87 -103 148 -192 129z"/>
</g>
</svg>
